<?xml version="1.0" standalone="no"?>
<svg viewBox="0 0 200 200" xmlns="http://www.w3.org/2000/svg">
  <path fill="#FF0066" d="M47.4,-80.2C61.8,-73.7,74.1,-61.8,82.1,-47.5C90,-33.3,93.6,-16.6,90,-2.1C86.4,12.5,75.7,25,67.7,39.1C59.6,53.3,54.3,69,43.5,77.8C32.6,86.6,16.3,88.5,0.1,88.4C-16.2,88.2,-32.3,86.1,-44,77.8C-55.7,69.5,-62.8,54.9,-68,40.9C-73.1,26.9,-76.2,13.5,-77.9,-1C-79.6,-15.4,-79.9,-30.9,-74.8,-44.9C-69.6,-58.9,-59.1,-71.5,-45.7,-78.6C-32.4,-85.7,-16.2,-87.4,0.1,-87.6C16.5,-87.9,32.9,-86.7,47.4,-80.2Z" transform="translate(100 100)" />
</svg>
